<?xml version="1.0" encoding="UTF-8" standalone="no"?>
<!-- Generator: Adobe Illustrator 20.1.0, SVG Export Plug-In . SVG Version: 6.00 Build 0)  -->

<svg
   xmlns:dc="http://purl.org/dc/elements/1.1/"
   xmlns:cc="http://creativecommons.org/ns#"
   xmlns:rdf="http://www.w3.org/1999/02/22-rdf-syntax-ns#"
   xmlns:svg="http://www.w3.org/2000/svg"
   xmlns="http://www.w3.org/2000/svg"
   xmlns:sodipodi="http://sodipodi.sourceforge.net/DTD/sodipodi-0.dtd"
   xmlns:inkscape="http://www.inkscape.org/namespaces/inkscape"
   version="1.1"
   id="Layer_1"
   x="0px"
   y="0px"
   viewBox="0 0 675.2 140.5"
   xml:space="preserve"
   sodipodi:docname="logo.svg"
   inkscape:version="0.92.2 (5c3e80d, 2017-08-06)"
   width="675.20001"
   height="140.5"><metadata
     id="metadata4555"><rdf:RDF><cc:Work
         rdf:about=""><dc:format>image/svg+xml</dc:format><dc:type
           rdf:resource="http://purl.org/dc/dcmitype/StillImage" /><dc:title></dc:title></cc:Work></rdf:RDF></metadata><defs
     id="defs4553" /><sodipodi:namedview
     pagecolor="#ffffff"
     bordercolor="#666666"
     borderopacity="1"
     objecttolerance="10"
     gridtolerance="10"
     guidetolerance="10"
     inkscape:pageopacity="0"
     inkscape:pageshadow="2"
     inkscape:window-width="1438"
     inkscape:window-height="881"
     id="namedview4551"
     showgrid="false"
     inkscape:zoom="0.47218153"
     inkscape:cx="465.92389"
     inkscape:cy="112.30827"
     inkscape:window-x="0"
     inkscape:window-y="17"
     inkscape:window-maximized="0"
     inkscape:current-layer="Layer_1" /><style
     type="text/css"
     id="style4540">
	.st0{fill-rule:evenodd;clip-rule:evenodd;fill:#F1686C;}
	.st1{fill-rule:evenodd;clip-rule:evenodd;fill:#FF686B;}
</style><polygon
     class="st0"
     points="275.4,26.7 275.4,27.8 275.4,29 275.4,27.8 "
     id="polygon4542"
     style="clip-rule:evenodd;fill:#f1686c;fill-rule:evenodd" /><path
     class="st1"
     d="m 108.9,39.9 c 1.7,0 3.2,-0.7 4.4,-1.7 v 0 c 1.2,-1 2,-2.5 2.2,-4.1 l 0.2,-1.1 c 0.2,-1.1 0.1,-2.2 -0.3,-3.3 v 0 c -0.3,-1 -0.9,-1.9 -1.8,-2.7 -0.8,-0.8 -1.8,-1.3 -2.8,-1.6 -1,-0.3 -2.1,-0.3 -3.3,-0.1 -4.3,0.9 -8.4,2.9 -12,5.6 -2.2,1.6 -4.2,3.6 -5.9,5.6 0.1,-0.8 0.2,-1.4 0.3,-1.9 v -0.1 c 0,-0.3 0.1,-0.6 0.1,-0.8 v -0.3 c 0.1,-0.4 0.1,-0.8 0.1,-1.2 0,-0.4 0.1,-0.8 0,-1.2 v 0 C 90,29.4 89.6,28.3 88.3,27.5 v 0 c -1.1,-0.6 -2.7,-0.9 -5.2,-0.7 l -3.3,0.1 v 0 0 h -0.1 c -0.7,0.1 -1.4,0.2 -2,0.4 v 0 C 77,27.5 76.5,27.8 76,28.2 l -1,0.8 0.1,0.1 c -0.1,0.2 -0.3,0.4 -0.4,0.7 -0.3,0.6 -0.5,1.3 -0.6,2.1 v 0 0 0 l -2.4,22.4 v 0 L 65.4,99 v 0.1 c 0,0.1 0,0.3 0,0.5 v 0 0.4 c 0,0.7 0.1,1.4 0.3,2 v 0 c 0.2,0.6 0.6,1.2 1,1.7 0.4,0.5 1,0.8 1.5,1.1 0.6,0.3 1.2,0.4 1.9,0.5 v 0 c 0.3,0 0.7,0.1 0.9,0.1 h 3.4 c 0.8,0 1.6,-0.1 2.4,-0.3 v 0 c 0.7,-0.2 1.4,-0.6 2,-1.1 v 0 c 0.6,-0.5 1,-1.1 1.4,-1.8 0.3,-0.7 0.5,-1.5 0.6,-2.3 l 4.1,-27.5 c 0.7,-4.8 1.8,-9.7 3.5,-14.2 1.8,-4.5 4.3,-8.6 7.9,-11.9 1.8,-1.7 3.8,-3.2 6,-4.4 2.1,-1.2 4.3,-1.9 6.6,-2 z"
     id="path4544"
     inkscape:connector-curvature="0"
     style="clip-rule:evenodd;fill:#ff686b;fill-rule:evenodd" /><path
     class="st1"
     d="m 188.8,80.9 c -0.1,-1.1 -0.1,-2.2 -0.1,-3.3 0,-1.2 0,-2.6 0.1,-4 0.1,-0.9 0.1,-1.9 0.3,-2.9 v 0 l 0.2,-1.3 c 0.9,-7.1 2.4,-13.5 4.6,-19 2.2,-5.5 5.2,-10.2 8.8,-14 3.7,-3.8 8.1,-6.7 13.3,-8.7 5.2,-1.9 11.1,-2.9 17.8,-2.9 1.5,0 3.2,0.1 4.8,0.4 1.7,0.2 3.3,0.5 4.6,0.8 l 3,-20.4 v -0.1 0 c 0.1,-0.8 0.4,-1.6 0.7,-2.2 0.3,-0.7 0.7,-1.3 1.3,-1.8 0.6,-0.5 1.2,-0.9 1.9,-1.2 v 0 c 0.7,-0.2 1.5,-0.4 2.4,-0.4 h 4.1 c 0.9,0 1.7,0.1 2.4,0.4 0.7,0.3 1.4,0.7 1.9,1.3 0.5,0.6 0.8,1.3 1,2 0.2,0.7 0.2,1.5 0.1,2.5 v 0 0.1 l -10.4,69.4 v 0 l -1.5,9.8 -0.2,1.4 c -0.3,2.1 -0.6,3.9 -0.2,4.9 0.3,0.8 1.3,1.3 3.5,1.3 2.3,0 5.1,-0.8 7.5,-2.1 2.1,-1.1 3.8,-2.7 4.6,-4.4 l 0.5,-1.2 1.2,0.7 c 2.9,1.7 4.9,4.8 5.7,8.6 0.9,4 0.6,8.8 -1,13.6 -1.6,4.8 -4.5,9.7 -8.9,13.8 -6.7,6.3 -16.9,10.9 -30.9,10.9 H 141.7 78.9 c -5.7,0 -11.1,0.2 -15.9,1.2 -4.7,0.9 -8.7,2.5 -11.7,5.3 -0.6,0.5 -1.3,0.9 -2,1 v 0 c -0.7,0.1 -1.5,0 -2.2,-0.3 v 0 c -0.7,-0.3 -1.3,-0.8 -1.7,-1.5 -0.4,-0.6 -0.6,-1.4 -0.6,-2.2 0.2,-7.3 3.3,-12.9 9.1,-16.6 5.7,-3.7 14,-5.6 24.6,-5.6 h 63.1 89.8 c 6.4,0 11.8,-0.2 16,-1.6 3.4,-1.1 6.1,-3.1 8.2,-6.4 -3.1,0.6 -6,0.8 -8.7,0.4 -2.7,-0.4 -5.2,-1.4 -7.2,-2.9 -2,-1.5 -3.5,-3.7 -4.3,-6.4 -0.4,-1.4 -0.6,-2.9 -0.7,-4.6 -2.6,3.1 -6.2,6.8 -10.3,9.6 -3.7,2.6 -7.8,4.4 -11.9,4.4 -1.1,0 -2.3,-0.1 -3.4,-0.2 -3.2,-0.4 -6,-1.4 -8.5,-2.9 -2.5,-1.5 -4.7,-3.5 -6.5,-6.1 l -0.2,-0.3 c -5.4,6.1 -13.5,10.8 -21.9,10.2 -3.7,-0.3 -7.2,-1.7 -9.7,-4.6 -2.2,-2.6 -3.2,-5.5 -3.5,-8.6 -0.3,-3 -0.1,-6.1 0.2,-9.1 0.3,-2.7 0.6,-5.3 0.9,-7.9 0.4,-2.7 0.7,-5.2 1.1,-7.7 v 0 c 0.4,-2.3 0.8,-4.8 1.4,-7.3 1.1,-5.3 2.2,-11 2.2,-15.5 0,-1.1 -0.1,-2.2 -0.3,-3.1 v 0 c -0.2,-0.9 -0.5,-1.6 -1,-2.3 -0.5,-0.7 -1.1,-1.3 -1.9,-1.7 -0.8,-0.4 -1.7,-0.8 -2.8,-1 -0.3,-0.1 -0.7,-0.1 -1.1,-0.1 -0.4,0 -0.8,0 -1.3,0 -1.7,0 -3.6,0.7 -5.6,1.8 -2.7,1.5 -5.4,3.7 -7.6,5.7 -3.6,3.3 -6.1,7.4 -7.9,11.9 -1.8,4.5 -2.8,9.4 -3.5,14.2 l -4.1,27.5 c -0.1,0.9 -0.3,1.7 -0.6,2.3 -0.3,0.7 -0.8,1.3 -1.4,1.8 v 0 c -0.6,0.5 -1.2,0.9 -2,1.1 v 0 c -0.7,0.2 -1.5,0.3 -2.4,0.3 h -3.3 c -0.3,0 -0.6,0 -0.9,-0.1 v 0 c -0.7,-0.1 -1.3,-0.2 -1.9,-0.5 -0.6,-0.3 -1.1,-0.6 -1.5,-1.1 -0.5,-0.5 -0.8,-1 -1,-1.7 v 0 c -0.2,-0.6 -0.3,-1.3 -0.3,-2 v 0 -0.4 0 c 0,-0.2 0,-0.3 0,-0.5 V 98.7 L 118.8,54 v 0 l 2.4,-22.4 v -0.1 0 0 c 0.1,-0.8 0.3,-1.4 0.6,-2 0.1,-0.2 0.3,-0.4 0.4,-0.7 l -0.1,-0.1 1,-0.8 c 0.5,-0.4 1.1,-0.7 1.7,-0.9 v 0 c 0.6,-0.2 1.3,-0.3 2,-0.4 h 0.1 v 0 0 l 3.3,-0.1 c 2.5,-0.1 4.1,0.1 5.2,0.7 v 0 c 1.3,0.8 1.7,1.9 1.8,3.5 v 0 c 0,0.4 0,0.8 0,1.2 0,0.4 -0.1,0.8 -0.1,1.2 v 0 0.4 0 l -0.1,0.8 v 0.1 c -0.1,0.5 -0.2,1.1 -0.3,1.9 2.3,-2.7 5,-5.2 8,-7.1 4.4,-2.8 9.3,-4.6 14.3,-4.6 1,0 2,0 3,0.1 1,0.1 1.9,0.2 2.9,0.4 v 0 c 2.4,0.4 4.6,1.2 6.6,2.2 1.9,1 3.6,2.3 5,3.9 1.4,1.6 2.5,3.5 3.2,5.7 0.7,2.1 1,4.5 1,7.1 0,0.9 -0.1,1.9 -0.2,3 -0.1,1 -0.2,2.1 -0.4,3.1 v 0 l -6,37.1 v 0 0.2 c -0.4,2.6 -0.8,5 0,5.7 1.9,1.7 8.6,-2.8 12.5,-6.3 1.5,-1.5 2.4,-3.5 2.2,-5.9 z m 47.9,-9.4 V 71.3 L 241.6,39 c -1.3,-0.2 -3.1,-0.5 -5.1,-0.8 -1.7,-0.2 -3.5,-0.3 -5.3,-0.3 h -0.7 c -3.2,0 -6.1,0.4 -8.8,1.5 -2.7,1 -5.1,2.6 -7.1,4.9 -2.2,2.4 -4.1,5.5 -5.6,9.6 -1.5,4.1 -2.7,9.1 -3.4,15.2 v 0.1 l -0.2,1.7 v 0.3 c -0.4,3.3 -0.6,6.4 -0.5,9.2 0.1,2.7 0.5,5.1 1.2,7.1 0.7,1.7 1.6,3.1 3,4 1.4,0.9 3.2,1.5 5.6,1.5 1.4,0 3.2,-0.8 5.3,-2.1 2.4,-1.5 5.1,-3.6 7.6,-6 2.5,-2.4 4.8,-5 6.5,-7.5 1.2,-2.3 2.2,-4.3 2.6,-5.9 z"
     id="path4546"
     inkscape:connector-curvature="0"
     style="clip-rule:evenodd;fill:#ff686b;fill-rule:evenodd" /><path
     class="st1"
     d="m 55.9,49.6 c -1.9,0 -3.5,-0.8 -4.8,-2 -1.3,-1.3 -2.1,-3.1 -2.3,-5 -0.2,-1.9 -1.8,-3.3 -3.9,-4 v 0 c -1.7,-0.6 -3.7,-0.9 -5.8,-0.8 -2.1,0.1 -4.3,0.5 -6.3,1.3 -3.6,1.4 -6.5,3.9 -6.9,7.4 -0.9,6.3 5.7,8.6 13.1,11.2 10.5,3.7 22.4,7.9 21.1,23.9 v 0 l -0.2,1.3 c -0.5,3.8 -1.5,7.2 -3.2,10.2 -1.7,3 -3.9,5.6 -6.7,7.7 -6,4.5 -16.2,6.9 -25.9,6.3 C 15.3,106.6 7,103.7 2.7,98 1.5,96.5 0.7,94.7 0.3,93 c -0.5,-1.9 -0.5,-3.8 0,-5.5 0.5,-1.8 1.5,-3.4 3.1,-4.6 1.1,-0.8 2.3,-1.4 3.9,-1.8 2.3,-0.6 4.2,-0.3 5.8,0.7 1.7,1 2.9,2.7 3.7,5 v 0 c 0.3,0.8 0.7,1.6 1.1,2.2 1.8,2.8 4.9,4.1 8.3,4.6 3.5,0.5 7.3,-0.1 10.4,-1.2 v 0 c 1.4,-0.5 2.6,-1.1 3.6,-1.8 1.1,-0.8 2.1,-1.7 2.8,-3 0.7,-1.2 1.1,-2.5 1.3,-4.2 V 83.3 C 45.2,76.1 38.2,73.6 30.4,70.8 20,67.1 8.1,63 10.1,46.8 c 0.8,-7 4.4,-12.2 9.3,-15.8 3.6,-2.7 8,-4.5 12.6,-5.5 4.6,-1 9.3,-1.2 13.8,-0.7 7.1,0.9 13.4,3.6 16.7,8 1.9,2.6 2.9,5.5 2.9,8.2 0,1.3 -0.3,2.6 -0.8,3.8 v 0 c -0.5,1.2 -1.3,2.2 -2.4,3 -1.6,1.1 -3.7,1.8 -6.3,1.8 z"
     id="path4548"
     inkscape:connector-curvature="0"
     style="clip-rule:evenodd;fill:#ff686b;fill-rule:evenodd" /><text
     xml:space="preserve"
     style="font-style:normal;font-variant:normal;font-weight:normal;font-stretch:normal;font-size:40px;line-height:125%;font-family:'Avenir Next';-inkscape-font-specification:'Avenir Next';letter-spacing:0px;word-spacing:0px;fill:#000000;fill-opacity:1;stroke:none;stroke-width:1px;stroke-linecap:butt;stroke-linejoin:miter;stroke-opacity:1"
     x="318.61398"
     y="89.672081"
     id="text4559"><tspan
       sodipodi:role="line"
       id="tspan4557"
       x="318.61398"
       y="89.672081"
       style="font-size:74.66666412px">Showcase</tspan></text>
</svg>