<?xml version="1.0" encoding="UTF-8" standalone="no"?>
<!-- Generator: Adobe Illustrator 20.1.0, SVG Export Plug-In . SVG Version: 6.00 Build 0)  -->

<svg
   xmlns:dc="http://purl.org/dc/elements/1.1/"
   xmlns:cc="http://creativecommons.org/ns#"
   xmlns:rdf="http://www.w3.org/1999/02/22-rdf-syntax-ns#"
   xmlns:svg="http://www.w3.org/2000/svg"
   xmlns="http://www.w3.org/2000/svg"
   xmlns:sodipodi="http://sodipodi.sourceforge.net/DTD/sodipodi-0.dtd"
   xmlns:inkscape="http://www.inkscape.org/namespaces/inkscape"
   version="1.1"
   id="Layer_1"
   x="0px"
   y="0px"
   viewBox="0 0 675.2 140.5"
   xml:space="preserve"
   sodipodi:docname="logo.svg"
   inkscape:version="0.92.2 (5c3e80d, 2017-08-06)"
   width="675.20001"
   height="140.5"><metadata
     id="metadata4555"><rdf:RDF><cc:Work
         rdf:about=""><dc:format>image/svg+xml</dc:format><dc:type
           rdf:resource="http://purl.org/dc/dcmitype/StillImage" /><dc:title /></cc:Work></rdf:RDF></metadata><defs
     id="defs4553" /><sodipodi:namedview
     pagecolor="#ffffff"
     bordercolor="#666666"
     borderopacity="1"
     objecttolerance="10"
     gridtolerance="10"
     guidetolerance="10"
     inkscape:pageopacity="0"
     inkscape:pageshadow="2"
     inkscape:window-width="1438"
     inkscape:window-height="881"
     id="namedview4551"
     showgrid="false"
     inkscape:zoom="0.47218153"
     inkscape:cx="446.86342"
     inkscape:cy="112.30827"
     inkscape:window-x="0"
     inkscape:window-y="17"
     inkscape:window-maximized="0"
     inkscape:current-layer="Layer_1" /><style
     type="text/css"
     id="style4540">
	.st0{fill-rule:evenodd;clip-rule:evenodd;fill:#F1686C;}
	.st1{fill-rule:evenodd;clip-rule:evenodd;fill:#FF686B;}
</style><polygon
     class="st0"
     points="275.4,26.7 275.4,27.8 275.4,29 275.4,27.8 "
     id="polygon4542"
     style="clip-rule:evenodd;fill:#f1686c;fill-rule:evenodd" /><path
     class="st1"
     d="m 108.9,39.9 c 1.7,0 3.2,-0.7 4.4,-1.7 v 0 c 1.2,-1 2,-2.5 2.2,-4.1 l 0.2,-1.1 c 0.2,-1.1 0.1,-2.2 -0.3,-3.3 v 0 c -0.3,-1 -0.9,-1.9 -1.8,-2.7 -0.8,-0.8 -1.8,-1.3 -2.8,-1.6 -1,-0.3 -2.1,-0.3 -3.3,-0.1 -4.3,0.9 -8.4,2.9 -12,5.6 -2.2,1.6 -4.2,3.6 -5.9,5.6 0.1,-0.8 0.2,-1.4 0.3,-1.9 v -0.1 c 0,-0.3 0.1,-0.6 0.1,-0.8 v -0.3 c 0.1,-0.4 0.1,-0.8 0.1,-1.2 0,-0.4 0.1,-0.8 0,-1.2 v 0 C 90,29.4 89.6,28.3 88.3,27.5 v 0 c -1.1,-0.6 -2.7,-0.9 -5.2,-0.7 l -3.3,0.1 v 0 0 h -0.1 c -0.7,0.1 -1.4,0.2 -2,0.4 v 0 C 77,27.5 76.5,27.8 76,28.2 l -1,0.8 0.1,0.1 c -0.1,0.2 -0.3,0.4 -0.4,0.7 -0.3,0.6 -0.5,1.3 -0.6,2.1 v 0 0 0 l -2.4,22.4 v 0 L 65.4,99 v 0.1 c 0,0.1 0,0.3 0,0.5 v 0 0.4 c 0,0.7 0.1,1.4 0.3,2 v 0 c 0.2,0.6 0.6,1.2 1,1.7 0.4,0.5 1,0.8 1.5,1.1 0.6,0.3 1.2,0.4 1.9,0.5 v 0 c 0.3,0 0.7,0.1 0.9,0.1 h 3.4 c 0.8,0 1.6,-0.1 2.4,-0.3 v 0 c 0.7,-0.2 1.4,-0.6 2,-1.1 v 0 c 0.6,-0.5 1,-1.1 1.4,-1.8 0.3,-0.7 0.5,-1.5 0.6,-2.3 l 4.1,-27.5 c 0.7,-4.8 1.8,-9.7 3.5,-14.2 1.8,-4.5 4.3,-8.6 7.9,-11.9 1.8,-1.7 3.8,-3.2 6,-4.4 2.1,-1.2 4.3,-1.9 6.6,-2 z"
     id="path4544"
     inkscape:connector-curvature="0"
     style="clip-rule:evenodd;fill:#ff686b;fill-rule:evenodd" /><path
     class="st1"
     d="m 188.8,80.9 c -0.1,-1.1 -0.1,-2.2 -0.1,-3.3 0,-1.2 0,-2.6 0.1,-4 0.1,-0.9 0.1,-1.9 0.3,-2.9 v 0 l 0.2,-1.3 c 0.9,-7.1 2.4,-13.5 4.6,-19 2.2,-5.5 5.2,-10.2 8.8,-14 3.7,-3.8 8.1,-6.7 13.3,-8.7 5.2,-1.9 11.1,-2.9 17.8,-2.9 1.5,0 3.2,0.1 4.8,0.4 1.7,0.2 3.3,0.5 4.6,0.8 l 3,-20.4 v -0.1 0 c 0.1,-0.8 0.4,-1.6 0.7,-2.2 0.3,-0.7 0.7,-1.3 1.3,-1.8 0.6,-0.5 1.2,-0.9 1.9,-1.2 v 0 c 0.7,-0.2 1.5,-0.4 2.4,-0.4 h 4.1 c 0.9,0 1.7,0.1 2.4,0.4 0.7,0.3 1.4,0.7 1.9,1.3 0.5,0.6 0.8,1.3 1,2 0.2,0.7 0.2,1.5 0.1,2.5 v 0 0.1 l -10.4,69.4 v 0 l -1.5,9.8 -0.2,1.4 c -0.3,2.1 -0.6,3.9 -0.2,4.9 0.3,0.8 1.3,1.3 3.5,1.3 2.3,0 5.1,-0.8 7.5,-2.1 2.1,-1.1 3.8,-2.7 4.6,-4.4 l 0.5,-1.2 1.2,0.7 c 2.9,1.7 4.9,4.8 5.7,8.6 0.9,4 0.6,8.8 -1,13.6 -1.6,4.8 -4.5,9.7 -8.9,13.8 -6.7,6.3 -16.9,10.9 -30.9,10.9 H 141.7 78.9 c -5.7,0 -11.1,0.2 -15.9,1.2 -4.7,0.9 -8.7,2.5 -11.7,5.3 -0.6,0.5 -1.3,0.9 -2,1 v 0 c -0.7,0.1 -1.5,0 -2.2,-0.3 v 0 c -0.7,-0.3 -1.3,-0.8 -1.7,-1.5 -0.4,-0.6 -0.6,-1.4 -0.6,-2.2 0.2,-7.3 3.3,-12.9 9.1,-16.6 5.7,-3.7 14,-5.6 24.6,-5.6 h 63.1 89.8 c 6.4,0 11.8,-0.2 16,-1.6 3.4,-1.1 6.1,-3.1 8.2,-6.4 -3.1,0.6 -6,0.8 -8.7,0.4 -2.7,-0.4 -5.2,-1.4 -7.2,-2.9 -2,-1.5 -3.5,-3.7 -4.3,-6.4 -0.4,-1.4 -0.6,-2.9 -0.7,-4.6 -2.6,3.1 -6.2,6.8 -10.3,9.6 -3.7,2.6 -7.8,4.4 -11.9,4.4 -1.1,0 -2.3,-0.1 -3.4,-0.2 -3.2,-0.4 -6,-1.4 -8.5,-2.9 -2.5,-1.5 -4.7,-3.5 -6.5,-6.1 l -0.2,-0.3 c -5.4,6.1 -13.5,10.8 -21.9,10.2 -3.7,-0.3 -7.2,-1.7 -9.7,-4.6 -2.2,-2.6 -3.2,-5.5 -3.5,-8.6 -0.3,-3 -0.1,-6.1 0.2,-9.1 0.3,-2.7 0.6,-5.3 0.9,-7.9 0.4,-2.7 0.7,-5.2 1.1,-7.7 v 0 c 0.4,-2.3 0.8,-4.8 1.4,-7.3 1.1,-5.3 2.2,-11 2.2,-15.5 0,-1.1 -0.1,-2.2 -0.3,-3.1 v 0 c -0.2,-0.9 -0.5,-1.6 -1,-2.3 -0.5,-0.7 -1.1,-1.3 -1.9,-1.7 -0.8,-0.4 -1.7,-0.8 -2.8,-1 -0.3,-0.1 -0.7,-0.1 -1.1,-0.1 -0.4,0 -0.8,0 -1.3,0 -1.7,0 -3.6,0.7 -5.6,1.8 -2.7,1.5 -5.4,3.7 -7.6,5.7 -3.6,3.3 -6.1,7.4 -7.9,11.9 -1.8,4.5 -2.8,9.4 -3.5,14.2 l -4.1,27.5 c -0.1,0.9 -0.3,1.7 -0.6,2.3 -0.3,0.7 -0.8,1.3 -1.4,1.8 v 0 c -0.6,0.5 -1.2,0.9 -2,1.1 v 0 c -0.7,0.2 -1.5,0.3 -2.4,0.3 h -3.3 c -0.3,0 -0.6,0 -0.9,-0.1 v 0 c -0.7,-0.1 -1.3,-0.2 -1.9,-0.5 -0.6,-0.3 -1.1,-0.6 -1.5,-1.1 -0.5,-0.5 -0.8,-1 -1,-1.7 v 0 c -0.2,-0.6 -0.3,-1.3 -0.3,-2 v 0 -0.4 0 c 0,-0.2 0,-0.3 0,-0.5 V 98.7 L 118.8,54 v 0 l 2.4,-22.4 v -0.1 0 0 c 0.1,-0.8 0.3,-1.4 0.6,-2 0.1,-0.2 0.3,-0.4 0.4,-0.7 l -0.1,-0.1 1,-0.8 c 0.5,-0.4 1.1,-0.7 1.7,-0.9 v 0 c 0.6,-0.2 1.3,-0.3 2,-0.4 h 0.1 v 0 0 l 3.3,-0.1 c 2.5,-0.1 4.1,0.1 5.2,0.7 v 0 c 1.3,0.8 1.7,1.9 1.8,3.5 v 0 c 0,0.4 0,0.8 0,1.2 0,0.4 -0.1,0.8 -0.1,1.2 v 0 0.4 0 l -0.1,0.8 v 0.1 c -0.1,0.5 -0.2,1.1 -0.3,1.9 2.3,-2.7 5,-5.2 8,-7.1 4.4,-2.8 9.3,-4.6 14.3,-4.6 1,0 2,0 3,0.1 1,0.1 1.9,0.2 2.9,0.4 v 0 c 2.4,0.4 4.6,1.2 6.6,2.2 1.9,1 3.6,2.3 5,3.9 1.4,1.6 2.5,3.5 3.2,5.7 0.7,2.1 1,4.5 1,7.1 0,0.9 -0.1,1.9 -0.2,3 -0.1,1 -0.2,2.1 -0.4,3.1 v 0 l -6,37.1 v 0 0.2 c -0.4,2.6 -0.8,5 0,5.7 1.9,1.7 8.6,-2.8 12.5,-6.3 1.5,-1.5 2.4,-3.5 2.2,-5.9 z m 47.9,-9.4 V 71.3 L 241.6,39 c -1.3,-0.2 -3.1,-0.5 -5.1,-0.8 -1.7,-0.2 -3.5,-0.3 -5.3,-0.3 h -0.7 c -3.2,0 -6.1,0.4 -8.8,1.5 -2.7,1 -5.1,2.6 -7.1,4.9 -2.2,2.4 -4.1,5.5 -5.6,9.6 -1.5,4.1 -2.7,9.1 -3.4,15.2 v 0.1 l -0.2,1.7 v 0.3 c -0.4,3.3 -0.6,6.4 -0.5,9.2 0.1,2.7 0.5,5.1 1.2,7.1 0.7,1.7 1.6,3.1 3,4 1.4,0.9 3.2,1.5 5.6,1.5 1.4,0 3.2,-0.8 5.3,-2.1 2.4,-1.5 5.1,-3.6 7.6,-6 2.5,-2.4 4.8,-5 6.5,-7.5 1.2,-2.3 2.2,-4.3 2.6,-5.9 z"
     id="path4546"
     inkscape:connector-curvature="0"
     style="clip-rule:evenodd;fill:#ff686b;fill-rule:evenodd" /><path
     class="st1"
     d="m 55.9,49.6 c -1.9,0 -3.5,-0.8 -4.8,-2 -1.3,-1.3 -2.1,-3.1 -2.3,-5 -0.2,-1.9 -1.8,-3.3 -3.9,-4 v 0 c -1.7,-0.6 -3.7,-0.9 -5.8,-0.8 -2.1,0.1 -4.3,0.5 -6.3,1.3 -3.6,1.4 -6.5,3.9 -6.9,7.4 -0.9,6.3 5.7,8.6 13.1,11.2 10.5,3.7 22.4,7.9 21.1,23.9 v 0 l -0.2,1.3 c -0.5,3.8 -1.5,7.2 -3.2,10.2 -1.7,3 -3.9,5.6 -6.7,7.7 -6,4.5 -16.2,6.9 -25.9,6.3 C 15.3,106.6 7,103.7 2.7,98 1.5,96.5 0.7,94.7 0.3,93 c -0.5,-1.9 -0.5,-3.8 0,-5.5 0.5,-1.8 1.5,-3.4 3.1,-4.6 1.1,-0.8 2.3,-1.4 3.9,-1.8 2.3,-0.6 4.2,-0.3 5.8,0.7 1.7,1 2.9,2.7 3.7,5 v 0 c 0.3,0.8 0.7,1.6 1.1,2.2 1.8,2.8 4.9,4.1 8.3,4.6 3.5,0.5 7.3,-0.1 10.4,-1.2 v 0 c 1.4,-0.5 2.6,-1.1 3.6,-1.8 1.1,-0.8 2.1,-1.7 2.8,-3 0.7,-1.2 1.1,-2.5 1.3,-4.2 V 83.3 C 45.2,76.1 38.2,73.6 30.4,70.8 20,67.1 8.1,63 10.1,46.8 c 0.8,-7 4.4,-12.2 9.3,-15.8 3.6,-2.7 8,-4.5 12.6,-5.5 4.6,-1 9.3,-1.2 13.8,-0.7 7.1,0.9 13.4,3.6 16.7,8 1.9,2.6 2.9,5.5 2.9,8.2 0,1.3 -0.3,2.6 -0.8,3.8 v 0 c -0.5,1.2 -1.3,2.2 -2.4,3 -1.6,1.1 -3.7,1.8 -6.3,1.8 z"
     id="path4548"
     inkscape:connector-curvature="0"
     style="clip-rule:evenodd;fill:#ff686b;fill-rule:evenodd" /><g
     aria-label="Showcase"
     style="font-style:normal;font-variant:normal;font-weight:normal;font-stretch:normal;font-size:40px;line-height:125%;font-family:'Avenir Next';-inkscape-font-specification:'Avenir Next';letter-spacing:0px;word-spacing:0px;fill:#000000;fill-opacity:1;stroke:none;stroke-width:1px;stroke-linecap:butt;stroke-linejoin:miter;stroke-opacity:1"
     id="text4559"><path
       d="m 351.24332,45.320083 q -1.71734,-2.389334 -4.40534,-3.808 -2.688,-1.493334 -6.496,-1.493334 -1.94133,0 -3.95733,0.597334 -2.016,0.597333 -3.65867,1.866666 -1.64266,1.194667 -2.688,3.061333 -0.97066,1.866667 -0.97066,4.405334 0,2.538666 0.97066,4.181333 0.97067,1.642666 2.53867,2.837333 1.64267,1.12 3.65867,1.866667 2.09066,0.746666 4.33066,1.493333 2.76267,0.896 5.52534,1.941333 2.83733,1.045334 5.07733,2.762667 2.24,1.642666 3.65867,4.256 1.41866,2.538666 1.41866,6.495999 0,3.957334 -1.568,6.869334 -1.49333,2.837333 -3.95733,4.703999 -2.38933,1.866667 -5.52533,2.762667 -3.06134,0.896 -6.19734,0.896 -2.38933,0 -4.77866,-0.522667 -2.38934,-0.448 -4.55467,-1.418666 -2.16533,-0.970667 -4.032,-2.464 -1.86667,-1.493334 -3.28533,-3.434667 l 4.62933,-3.434666 q 1.71733,2.837333 4.77867,4.778666 3.136,1.866667 7.31733,1.866667 2.016,0 4.10667,-0.597334 2.09066,-0.672 3.73333,-1.941333 1.71733,-1.344 2.76267,-3.210666 1.12,-1.941334 1.12,-4.48 0,-2.762667 -1.12,-4.554667 -1.04534,-1.866666 -2.83734,-3.061333 -1.792,-1.269333 -4.10666,-2.090667 -2.31467,-0.821333 -4.85334,-1.642666 -2.61333,-0.821333 -5.152,-1.866667 -2.53866,-1.045333 -4.55466,-2.688 -2.016,-1.717333 -3.28534,-4.181333 -1.19466,-2.464 -1.19466,-6.048 0,-3.808 1.49333,-6.570666 1.568,-2.762667 4.032,-4.554667 2.464,-1.792 5.45067,-2.613333 2.98666,-0.821333 5.89866,-0.821333 5.376,0 9.184,1.941333 3.808,1.866667 5.74934,4.48 z"
       style="font-size:74.66666412px"
       id="path51" /><path
       d="m 372.85581,60.477415 q 1.41867,-3.061333 4.704,-4.853333 3.28534,-1.792 7.01867,-1.792 6.64533,0 9.93067,3.957333 3.36,3.957334 3.36,10.453333 v 21.429333 h -5.07734 V 70.333415 q 0,-2.762667 -0.448,-5.002667 -0.448,-2.239999 -1.568,-3.807999 -1.04533,-1.642667 -2.912,-2.538667 -1.792,-0.896 -4.55466,-0.896 -2.016,0 -3.95734,0.821333 -1.86666,0.821334 -3.36,2.538667 -1.49333,1.642667 -2.38933,4.256 -0.896,2.538666 -0.896,6.048 v 17.919999 h -5.07733 V 33.224083 h 5.07733 v 27.253332 z"
       style="font-size:74.66666412px"
       id="path53" /><path
       d="m 445.80398,72.200082 q 0,3.957333 -1.41866,7.317333 -1.344,3.36 -3.808,5.823999 -2.464,2.464 -5.89867,3.882667 -3.43467,1.344 -7.54133,1.344 -4.032,0 -7.46667,-1.344 -3.43467,-1.418667 -5.89867,-3.882667 -2.464,-2.463999 -3.88266,-5.823999 -1.344,-3.36 -1.344,-7.317333 0,-3.957334 1.344,-7.317333 1.41866,-3.36 3.88266,-5.824 2.464,-2.464 5.89867,-3.808 3.43467,-1.418667 7.46667,-1.418667 4.10666,0 7.54133,1.418667 3.43467,1.344 5.89867,3.808 2.464,2.464 3.808,5.824 1.41866,3.359999 1.41866,7.317333 z m -5.376,0 q 0,-2.912 -0.97066,-5.450667 -0.896,-2.613333 -2.61334,-4.48 -1.71733,-1.941333 -4.18133,-3.061333 -2.464,-1.12 -5.52533,-1.12 -3.06134,0 -5.52534,1.12 -2.38933,1.12 -4.10666,3.061333 -1.71734,1.866667 -2.688,4.48 -0.896,2.538667 -0.896,5.450667 0,2.911999 0.896,5.525333 0.97066,2.538666 2.688,4.48 1.71733,1.866666 4.10666,2.986666 2.464,1.045333 5.52534,1.045333 3.06133,0 5.52533,-1.045333 2.464,-1.12 4.18133,-2.986666 1.71734,-1.941334 2.61334,-4.48 0.97066,-2.613334 0.97066,-5.525333 z"
       style="font-size:74.66666412px"
       id="path55" /><path
       d="m 457.40181,54.728082 8.43733,28.373333 h 0.14934 l 9.408,-28.373333 h 4.928 l 9.55733,28.373333 h 0.14933 l 8.36267,-28.373333 h 5.376 l -11.05067,34.943999 h -5.52533 l -9.33333,-28.298666 h -0.14934 l -9.184,28.298666 h -5.52533 L 451.95114,54.728082 Z"
       style="font-size:74.66666412px"
       id="path57" /><path
       d="m 537.60081,62.717415 q -1.26934,-2.016 -3.73334,-3.285333 -2.38933,-1.344 -5.22666,-1.344 -3.06134,0 -5.52534,1.12 -2.464,1.045333 -4.256,2.986667 -1.71733,1.866666 -2.688,4.479999 -0.896,2.538667 -0.896,5.525334 0,2.986666 0.896,5.525333 0.97067,2.538666 2.688,4.48 1.71734,1.866666 4.18134,2.986666 2.464,1.045333 5.52533,1.045333 3.36,0 5.67467,-1.269333 2.31466,-1.269333 3.808,-3.285333 l 3.808,2.837333 q -2.24,2.762667 -5.52534,4.405333 -3.21066,1.642667 -7.76533,1.642667 -4.256,0 -7.69067,-1.344 -3.43466,-1.418667 -5.89866,-3.882667 -2.38934,-2.463999 -3.73334,-5.823999 -1.344,-3.36 -1.344,-7.317333 0,-3.957334 1.344,-7.317333 1.344,-3.36 3.73334,-5.824 2.464,-2.464 5.89866,-3.808 3.43467,-1.418667 7.69067,-1.418667 3.50933,0 7.09333,1.568 3.65867,1.493333 5.89867,4.48 z"
       style="font-size:74.66666412px"
       id="path59" /><path
       d="m 571.79815,67.122748 q 0,-4.554666 -2.38933,-6.794666 -2.38934,-2.24 -6.944,-2.24 -3.136,0 -5.824,1.12 -2.688,1.12 -4.55467,2.986667 l -2.83733,-3.36 q 2.16533,-2.165334 5.67466,-3.584 3.584,-1.418667 8.064,-1.418667 2.83734,0 5.30134,0.821334 2.464,0.746666 4.33066,2.314666 1.86667,1.568 2.912,3.957333 1.04534,2.389334 1.04534,5.6 v 15.306666 q 0,2.016 0.14933,4.181333 0.14933,2.165334 0.448,3.658667 h -4.55467 q -0.224,-1.269333 -0.37333,-2.762667 -0.14933,-1.493333 -0.14933,-2.911999 h -0.14934 q -2.38933,3.509333 -5.45066,5.077333 -2.98667,1.493333 -7.24267,1.493333 -2.016,0 -4.18133,-0.597333 -2.09067,-0.522667 -3.88267,-1.792 -1.71733,-1.269334 -2.912,-3.285334 -1.12,-2.015999 -1.12,-4.927999 0,-4.032 2.016,-6.346667 2.09067,-2.389333 5.52533,-3.509333 3.43467,-1.194667 7.84,-1.493333 4.48,-0.373334 9.25867,-0.373334 z m -1.49333,5.077334 q -3.136,0 -6.34667,0.298666 -3.136,0.224 -5.74933,1.045334 -2.53867,0.746666 -4.18134,2.239999 -1.64266,1.493334 -1.64266,3.957334 0,1.866666 0.672,3.136 0.74666,1.269333 1.94133,2.090666 1.19467,0.746667 2.61333,1.12 1.49334,0.298667 2.98667,0.298667 2.688,0 4.77867,-0.896 2.09066,-0.970667 3.50933,-2.538667 1.41867,-1.642666 2.16533,-3.733333 0.74667,-2.090667 0.74667,-4.405333 v -2.613333 z"
       style="font-size:74.66666412px"
       id="path61" /><path
       d="m 608.17598,63.016082 q -1.12,-2.165333 -3.43466,-3.509333 -2.24,-1.418667 -5.152,-1.418667 -1.344,0 -2.688,0.298667 -1.344,0.298666 -2.38934,0.970666 -1.04533,0.672 -1.71733,1.717334 -0.59733,1.045333 -0.59733,2.464 0,2.463999 2.016,3.807999 2.016,1.269334 6.34666,2.165334 6.19734,1.269333 9.10934,3.733333 2.98666,2.389333 2.98666,6.496 0,2.986666 -1.19466,5.077333 -1.12,2.016 -2.98667,3.36 -1.86667,1.269333 -4.256,1.792 -2.31467,0.597333 -4.704,0.597333 -3.95733,0 -7.69067,-1.642667 -3.73333,-1.642666 -6.12266,-5.151999 l 4.032,-2.986667 q 1.344,2.314667 3.95733,3.882666 2.61333,1.568 5.74933,1.568 1.64267,0 3.136,-0.298666 1.49334,-0.298667 2.61334,-1.045334 1.12,-0.746666 1.792,-1.866666 0.672,-1.194667 0.672,-2.912 0,-2.762667 -2.688,-4.106667 -2.61334,-1.418666 -7.616,-2.613333 -1.568,-0.373333 -3.36,-0.896 -1.71734,-0.597333 -3.21067,-1.642666 -1.49333,-1.12 -2.464,-2.762667 -0.97067,-1.642667 -0.97067,-4.106666 0,-2.688 1.04534,-4.554667 1.04533,-1.941333 2.76266,-3.136 1.792,-1.269333 4.032,-1.866666 2.24,-0.597334 4.62934,-0.597334 3.65866,0 7.09333,1.642667 3.43467,1.642666 5.152,4.629333 z"
       style="font-size:74.66666412px"
       id="path63" /><path
       d="m 649.34414,69.512082 q -0.224,-4.928 -3.21067,-8.138667 -2.912,-3.285333 -8.36266,-3.285333 -2.53867,0 -4.704,0.970667 -2.16534,0.896 -3.808,2.538666 -1.64267,1.568 -2.61334,3.658667 -0.97066,2.016 -1.12,4.256 z m 5.152,1.642666 q 0,0.522667 0,1.12 0,0.597334 -0.0747,1.269334 h -28.97066 q 0.0747,2.613333 1.04533,4.927999 0.97067,2.314667 2.688,4.032 1.71733,1.717334 4.032,2.762667 2.31467,0.970666 5.00267,0.970666 3.95733,0 6.79466,-1.791999 2.912,-1.866667 4.40534,-4.256 l 3.808,2.986666 q -3.136,3.957333 -6.944,5.674667 -3.73334,1.717333 -8.064,1.717333 -3.88267,0 -7.24267,-1.344 -3.28533,-1.418667 -5.67467,-3.882667 -2.38933,-2.463999 -3.808,-5.823999 -1.344,-3.36 -1.344,-7.317333 0,-3.957334 1.344,-7.317333 1.344,-3.36 3.73334,-5.824 2.38933,-2.464 5.6,-3.808 3.21066,-1.418667 6.944,-1.418667 4.10666,0 7.24266,1.418667 3.136,1.344 5.22667,3.733333 2.09067,2.314667 3.136,5.450667 1.12,3.135999 1.12,6.719999 z"
       style="font-size:74.66666412px"
       id="path65" /></g></svg>